HIERARCHY
ROOT Hips
{
	OFFSET 0.000000 0.000000 0.000000
	CHANNELS 6 Xposition Yposition Zposition Zrotation Yrotation Xrotation 
	JOINT LeftUpLeg_virtual
	{
		OFFSET 0.000000 0.000000 0.000000
		CHANNELS 3 Zrotation Yrotation Xrotation
		JOINT LeftUpLeg
		{
			OFFSET 10.205400 -3.823500 0.155100
			CHANNELS 3 Zrotation Yrotation Xrotation
			JOINT LeftLeg
			{
				OFFSET 0.708757 -12.982077 0.567790
				CHANNELS 3 Zrotation Yrotation Xrotation
				JOINT LeftFoot
				{
					OFFSET -0.708756 -10.717838 -2.184338
					CHANNELS 3 Zrotation Yrotation Xrotation
					JOINT LeftToeBase
					{
						OFFSET 0.108149 -7.191104 7.560241
						CHANNELS 3 Zrotation Yrotation Xrotation
						End Site
						{
							OFFSET 0.000000 0.000000 0.000000
						}
					}
				}
			}
		}
	}
	JOINT RightUpLeg_virtual
	{
		OFFSET 0.000000 0.000000 0.000000
		CHANNELS 3 Zrotation Yrotation Xrotation
		JOINT RightUpLeg
		{
			OFFSET -10.205400 -3.823500 0.005500
			CHANNELS 3 Zrotation Yrotation Xrotation
			JOINT RightLeg
			{
				OFFSET -0.708756 -12.982134 0.610632
				CHANNELS 3 Zrotation Yrotation Xrotation
				JOINT RightFoot
				{
					OFFSET 0.708754 -10.717769 -1.945823
					CHANNELS 3 Zrotation Yrotation Xrotation
					JOINT RightToeBase
					{
						OFFSET -0.108140 -7.191069 7.372968
						CHANNELS 3 Zrotation Yrotation Xrotation
						End Site
						{
							OFFSET 0.000000 0.000000 0.000000
						}
					}
				}
			}
		}
	}
	JOINT Spine_virtual
	{
		OFFSET 0.000000 0.000000 0.000000
		CHANNELS 3 Zrotation Yrotation Xrotation
		JOINT Spine
		{
			OFFSET 0.000000 6.876099 0.125700
			CHANNELS 3 Zrotation Yrotation Xrotation
			JOINT Spine1
			{
				OFFSET 0.000000 8.022060 0.146608
				CHANNELS 3 Zrotation Yrotation Xrotation
				JOINT Spine2
				{
					OFFSET 0.000000 9.168068 0.167552
					CHANNELS 3 Zrotation Yrotation Xrotation
					JOINT Neck_virtual
					{
						OFFSET 0.000000 0.000000 0.000000
						CHANNELS 3 Zrotation Yrotation Xrotation
						JOINT Neck
						{
							OFFSET 0.000000 10.314075 0.188496
							CHANNELS 3 Zrotation Yrotation Xrotation
							JOINT Head
							{
								OFFSET 0.000000 7.643700 -2.377400
								CHANNELS 3 Zrotation Yrotation Xrotation
								End Site
								{
									OFFSET 0.000000 0.000000 0.000000
								}
							}
						}
					}
					JOINT LeftShoulder_virtual
					{
						OFFSET 0.000000 0.000000 0.000000
						CHANNELS 3 Zrotation Yrotation Xrotation
						JOINT LeftShoulder
						{
							OFFSET 4.392200 8.824978 0.174984
							CHANNELS 3 Zrotation Yrotation Xrotation
							JOINT LeftArm
							{
								OFFSET 8.771219 -2.981674 -0.026999
								CHANNELS 3 Zrotation Yrotation Xrotation
								JOINT LeftForeArm
								{
									OFFSET 8.512804 0.000000 -0.000000
									CHANNELS 3 Zrotation Yrotation Xrotation
									JOINT LeftHand
									{
										OFFSET 18.484802 0.000000 -0.000000
										CHANNELS 3 Zrotation Yrotation Xrotation
										End Site
										{
											OFFSET 0.000000 0.000000 0.000000
										}
									}
								}
							}
						}
					}
					JOINT RightShoulder_virtual
					{
						OFFSET 0.000000 0.000000 0.000000
						CHANNELS 3 Zrotation Yrotation Xrotation
						JOINT RightShoulder
						{
							OFFSET -4.392200 8.824993 0.141379
							CHANNELS 3 Zrotation Yrotation Xrotation
							JOINT RightArm
							{
								OFFSET -8.771282 -2.981682 -0.094208
								CHANNELS 3 Zrotation Yrotation Xrotation
								JOINT RightForeArm
								{
									OFFSET -8.494598 0.000000 0.000000
									CHANNELS 3 Zrotation Yrotation Xrotation
									JOINT RightHand
									{
										OFFSET -18.483803 0.000000 0.000001
										CHANNELS 3 Zrotation Yrotation Xrotation
										End Site
										{
											OFFSET 0.000000 0.000000 0.000000
										}
									}
								}
							}
						}
					}
				}
			}
		}
	}
}
MOTION
Frames: 8
Frame Time: 0.033333
10.592196 36.557930 8.569386 179.919040 -14.748091 179.206091 -1.297904 -5.772528 12.368868 -2.472765 0.066992 -13.701708 6.969386 10.779615 13.147255 2.005912 2.305057 6.435819 0.000000 0.000000 0.000000 0.932116 -5.835095 13.405143 4.880318 7.860405 -15.692105 -5.276906 2.242271 10.970768 4.432167 4.997763 10.856763 0.000000 0.000000 0.000000 2.112043 -0.965385 3.520236 1.147336 -8.119370 -10.065644 2.846833 0.618072 -0.264846 0.023050 -0.025245 -0.116842 2.079630 4.152664 13.005774 3.186435 -17.785862 23.919030 0.000000 0.000000 0.000000 3.393649 5.260337 8.554359 -10.690840 -9.388961 -4.724804 -5.801759 -3.914038 -41.699101 -2.147352 -43.545594 -13.384288 0.000000 0.000000 0.000000 -2.057973 7.461326 6.306589 22.193962 27.180475 -49.050379 -23.429181 -77.384739 -20.802888 178.460549 -0.534186 -170.665049 0.000000 0.000000 0.000000 
10.690205 36.513115 8.562628 179.922619 -12.938174 179.294255 -1.285885 -5.742488 12.267345 -2.832031 0.689572 -13.101563 7.761137 10.663843 13.315137 1.761276 2.614653 6.250963 0.000000 0.000000 0.000000 0.789690 -5.864851 13.088712 5.048556 8.247005 -15.870781 -5.145887 3.003302 10.800042 4.684668 5.059736 11.050828 0.000000 0.000000 0.000000 2.125454 -0.969251 3.416650 0.682067 -7.994815 -9.769167 3.268681 0.335739 -0.478301 0.028695 -0.063424 -0.076570 2.482775 4.036077 13.107554 3.740570 -18.857474 23.529901 0.000000 0.000000 0.000000 3.828325 5.107968 8.497067 -11.445845 -9.221025 -4.616797 -5.836434 -3.358242 -39.875484 -2.134472 -43.051676 -13.116006 0.000000 0.000000 0.000000 -1.518896 7.400859 6.424649 21.797432 25.929703 -48.420509 -57.489771 -77.623625 28.299475 178.971952 2.514523 -170.963228 0.000000 0.000000 0.000000 
10.769732 36.462769 8.469424 -179.996330 -11.060597 179.379510 -1.164579 -5.779022 12.409454 -3.277659 1.456989 -12.621204 8.524712 10.711733 13.687474 1.562747 2.902983 6.027983 0.000000 0.000000 0.000000 0.758709 -5.977331 12.913258 5.064146 8.709357 -16.156701 -5.011084 3.444471 10.676614 5.145660 5.146667 11.317193 0.000000 0.000000 0.000000 2.294692 -1.123887 3.166123 0.272619 -7.832228 -9.531879 3.570082 0.089275 -0.410018 -0.007918 -0.067144 -0.088421 2.684746 3.769655 13.429762 4.108741 -19.744914 23.169566 0.000000 0.000000 0.000000 4.043469 4.931041 8.749820 -11.994337 -8.923581 -4.824032 -5.947705 -3.180213 -37.969783 -2.157675 -42.556969 -12.883562 0.000000 0.000000 0.000000 -1.169455 7.174935 6.968693 20.551925 24.817743 -47.209386 -81.670286 -67.403333 79.517718 179.637868 6.461829 -171.138845 0.000000 0.000000 0.000000 
10.843080 36.411438 8.360373 179.943779 -8.999689 179.456226 -1.211159 -5.807527 12.698254 -3.694911 2.272356 -12.375454 9.321549 10.785261 14.118663 1.213364 2.944232 5.798355 0.000000 0.000000 0.000000 0.590205 -6.023549 12.927741 4.973278 9.299888 -16.611174 -4.922772 3.664057 10.532229 5.890932 5.188030 11.815135 0.000000 0.000000 0.000000 2.475312 -1.280719 2.979003 -0.147247 -7.514039 -9.369511 3.749368 -0.140161 -0.246289 0.000871 -0.017144 -0.009791 2.725703 3.501529 13.940088 4.207556 -20.556241 22.849028 0.000000 0.000000 0.000000 4.114294 4.633354 9.118093 -12.506642 -8.791162 -5.042247 -5.986131 -3.286313 -36.258582 -2.330198 -41.724171 -12.674139 0.000000 0.000000 0.000000 -0.998037 7.023003 7.693687 18.139823 23.892972 -45.994531 -78.882790 -54.769812 104.306708 -179.677606 10.839616 -170.990384 0.000000 0.000000 0.000000 
10.902442 36.372234 8.258628 179.962548 -6.915223 179.560605 -1.201754 -5.874876 12.994517 -4.047111 3.093343 -12.347503 10.052357 11.060502 14.635666 0.861344 2.753927 5.552134 0.000000 0.000000 0.000000 0.547375 -6.051613 13.089774 4.857413 10.010838 -17.198585 -4.960412 4.139212 10.327220 6.683180 5.112122 12.420522 0.000000 0.000000 0.000000 2.771100 -1.326376 2.781606 -0.491619 -7.165726 -9.065845 3.860304 -0.437881 0.149501 -0.012117 -0.035069 -0.014862 2.626801 3.215225 14.228850 4.305328 -21.384414 22.205300 0.000000 0.000000 0.000000 4.054980 4.435752 9.497039 -12.914024 -8.841683 -5.400707 -6.021643 -3.704636 -34.408017 -2.380904 -40.683742 -12.684461 0.000000 0.000000 0.000000 -0.959003 6.933016 8.482664 14.711350 23.565642 -45.277512 -72.099887 -46.589663 116.567642 -179.062111 14.860939 -170.811652 0.000000 0.000000 0.000000 
10.966511 36.338192 8.208780 179.962753 -4.897451 179.617241 -1.274439 -5.668798 13.309319 -4.300754 3.803759 -12.341437 10.912518 11.428466 15.333599 0.585900 2.346818 5.306974 0.000000 0.000000 0.000000 0.502387 -5.778513 13.300140 4.788409 10.784656 -17.834230 -5.118749 4.650079 10.203112 7.368123 4.996017 12.992851 0.000000 0.000000 0.000000 2.974683 -1.244388 2.824884 -0.849490 -6.820795 -8.755899 3.971885 -0.648288 0.456723 -0.003028 -0.026204 -0.024610 2.560608 2.868872 14.409515 4.577063 -22.156017 21.254920 0.000000 0.000000 0.000000 3.964792 4.207021 9.855346 -13.261557 -9.240177 -5.716356 -5.907510 -4.431337 -32.417106 -2.545713 -39.751773 -12.600135 0.000000 0.000000 0.000000 -1.016830 6.718584 9.072883 10.565754 23.589349 -45.243224 -67.271858 -42.094517 121.963601 -178.449456 18.150994 -170.498515 0.000000 0.000000 0.000000 
11.057455 36.307766 8.210277 179.935446 -3.019652 179.624959 -1.428359 -5.411082 13.583660 -4.521507 4.365938 -12.404087 11.739766 11.568964 16.113376 0.477282 1.944577 5.164975 0.000000 0.000000 0.000000 0.433828 -5.514942 13.532793 4.784700 11.439504 -18.553886 -5.266714 5.071008 10.110195 8.009976 4.896588 13.572696 0.000000 0.000000 0.000000 3.099540 -1.024345 3.006038 -1.201410 -6.568756 -8.433035 3.982696 -0.860328 0.591283 -0.026913 -0.021007 -0.032702 2.537453 2.693007 14.397492 4.930171 -22.971956 20.174360 0.000000 0.000000 0.000000 3.968774 3.966664 9.936522 -13.402271 -10.004040 -5.930591 -5.861753 -5.343106 -29.703325 -2.622872 -39.399082 -12.660255 0.000000 0.000000 0.000000 -0.964749 6.486834 9.335090 6.569829 23.515037 -46.052878 -64.615079 -39.620251 122.577061 -178.080599 20.643886 -170.203888 0.000000 0.000000 0.000000 
11.160577 36.286243 8.191340 179.973545 -1.191638 179.667552 -1.545802 -5.216118 13.835833 -4.644933 4.893169 -12.614787 12.597566 11.589121 16.996284 0.415055 1.467534 4.930048 0.000000 0.000000 0.000000 0.468441 -5.235513 13.761084 4.801010 12.040337 -19.305212 -5.413560 5.432646 10.030506 8.496660 4.799778 14.060478 0.000000 0.000000 0.000000 3.169034 -0.793745 3.139735 -1.587701 -6.339228 -8.152807 4.033088 -0.972557 0.618689 -0.028682 0.007822 -0.021883 2.597229 2.506233 14.337301 5.519280 -24.029449 19.036337 0.000000 0.000000 0.000000 4.003253 3.827523 9.965995 -13.440419 -11.135939 -6.283367 -5.814909 -6.479223 -26.307864 -2.822613 -39.668171 -12.435538 0.000000 0.000000 0.000000 -0.853406 6.332107 9.283937 3.214471 23.281501 -46.804694 -63.522877 -38.651545 121.391750 -177.841938 22.205886 -170.033653 0.000000 0.000000 0.000000 
